<?xml version="1.0" encoding="utf-8"?>

<svg version="1.1" id="Pramodize_x5F_Symbol_x5F_Black"
	 xmlns="http://www.w3.org/2000/svg" xmlns:xlink="http://www.w3.org/1999/xlink" x="0px" y="0px" viewBox="0 0 841.89 1190.55"
	 style="enable-background:new 0 0 841.89 1190.55;" xml:space="preserve">
<style type="text/css">
	.pramodize-symbol-shape{fill:#f9f9f9;}
</style>
<g>
	<g>
		<path class="pramodize-symbol-shape" d="M797.11,599.72c-2.52,5.14-5.24,10.28-8.14,15.32c-29.28,51.57-72.51,92.38-129.71,122.63
			c-4.46,2.42-9.11,4.65-13.77,6.88c-18.32-24.24-48.95-58.07-96.84-92.68c0,0,3.78-4.07,9.31-11.15
			c6.79-8.72,16.29-22.01,24.82-37.71c0,0,11.34,7.76,27.72,10.57c11.24,1.94,24.72,1.45,38.58-5.33c0,0,10.08,10.66,23.17,8.14
			c0,0,8.63-1.16,17.74-14.64c0,0,13.38,12.02,29.28,10.86c0,0,18.61,1.65,32.09-16.29c0,0,22.01,12.7,42.27,4.85
			C793.62,601.17,794.98,600.78,797.11,599.72z"/>
		<path class="pramodize-symbol-shape" d="M832.88,442.87c0,14.74-0.78,29.18-2.42,43.33c-59.52,5.04-117.3,4.56-158.5-7.66
			c-22.68-6.69-40.33-16.96-50.51-31.89c0,0-12.31-21.71,9.31-31.7c11.15,4.94,20.75,12.6,21.91,13.57
			c-3.01-10.08-7.46-17.35-12.41-22.68c1.65-1.26,2.71-3.59-0.29-8.14c-0.58-0.78-1.07-1.45-1.45-2.04
			c2.71-11.54,1.84-21.52-4.85-34.61c0,0-33.74-54.87-73.48,1.16l-24.72,38.97c0,0-0.1,0.1-0.39,0.39c-0.19,0.1-0.29,0.29-0.48,0.49
			c-2.23,1.84-8.43,6.69-18.03,9.98c-1.55,0.58-3.2,1.07-4.94,1.45c-0.19,0.1-0.39,0.1-0.58,0.19c-1.07,0.29-2.23,0.49-3.39,0.68
			c-1.26,0.29-2.42,0.49-3.68,0.58c-0.97,0.1-1.94,0.19-3.01,0.29c-1.36,0.1-2.71,0.19-4.17,0.19h-0.68c0,0-22.59-0.97-40.04-16.58
			c0,0-0.48-0.29-1.26-0.97c-0.29-0.19-0.58-0.39-0.97-0.68c-6.88-5.04-29.08-21.42-57.19-41.78c-2.13-1.55-4.27-3.1-6.4-4.65
			c-42.94-30.92-97.23-69.51-132.61-92.19c-11.73-7.46-21.33-13.28-27.72-16.38c0,0-101.98-48.57-183.02-143.76h404.82
			c122.73,0,217.05,31.21,282.68,93.55C800.12,254.41,832.88,337.98,832.88,442.87z"/>
		<path class="pramodize-symbol-shape" d="M197.92,574.9c0,0-9.69,31.31,27.24,46.53c0,0-9.69,7.85-12.99,19.29c-1.36,4.56-1.65,9.89,0.19,15.41
			c0,0,5.33,16.09,23.17,19.78c0,0-9.6,23.46,7.95,37.81c0,0,13.86,10.37,36.16,10.37c0,0-13.57,37.61,4.07,47.31
			c0,0,17.64,12.8,44.88,9.6c0,0-0.19,0.78-0.39,2.04h-1.26v101.69c-4.07,198.83-252.24,215.79-305.75,217.15h-8.82V99.5
			c26.95,49.54,64.27,105.37,114.97,157.92c0,0,18.61,16.67,4.85,16.87c0,0-49.73,3.2,23.17,32.86c0,0,16.38,6.3,0,8.82
			c0,0-32.77,5.14,20.84,36.84c0,0,12.41,4.46,7.56,12.21c-4.46,8.92-3.78,18.71,0.97,27.05c7.17,13.38,24.14,23.27,45.17,20.94
			h6.49c0,0-18.52,51.28,45.66,43.24c0,0-10.37,50.22,44.88,46.53c2.33-0.19,4.75-0.39,7.27-0.78c0,0,2.23,18.9,22.78,32.96
			c12.31,8.43,31.12,15.12,59.81,15.12c0,0-11.83,14.54-24.04,33.64C392.77,583.72,246,567.73,197.92,574.9z"/>
	</g>
</g>
</svg>
